<?xml version="1.0" standalone="no"?>
<!DOCTYPE svg PUBLIC "-//W3C//DTD SVG 20010904//EN"
 "http://www.w3.org/TR/2001/REC-SVG-20010904/DTD/svg10.dtd">
<svg version="1.0" xmlns="http://www.w3.org/2000/svg"
 width="96.000000pt" height="96.000000pt" viewBox="0 0 96.000000 96.000000"
 preserveAspectRatio="xMidYMid meet">
<metadata>
Created by potrace 1.14, written by Peter Selinger 2001-2017
</metadata>
<g transform="translate(0.000000,96.000000) scale(0.100000,-0.100000)"
fill="#000000" stroke="none">
<path d="M223 943 c-15 -5 -18 -140 -4 -162 5 -8 16 -11 30 -6 19 6 21 14 21
75 0 95 -8 110 -47 93z"/>
<path d="M383 943 c-15 -5 -18 -140 -4 -162 5 -8 16 -11 30 -6 19 6 21 14 21
75 0 95 -8 110 -47 93z"/>
<path d="M543 943 c-15 -5 -18 -140 -4 -162 5 -8 16 -11 30 -6 19 6 21 14 21
75 0 95 -8 110 -47 93z"/>
<path d="M63 663 c-10 -3 -13 -56 -13 -214 0 -195 2 -213 21 -252 24 -46 36
-58 91 -87 34 -18 56 -20 235 -19 197 1 234 6 279 39 34 25 63 75 70 119 6 35
10 41 31 41 39 0 116 47 141 86 34 53 40 129 13 180 -30 57 -41 69 -88 93 -41
20 -53 21 -405 20 -200 0 -369 -3 -375 -6z m757 -68 c37 -19 70 -74 70 -116 0
-46 -33 -97 -75 -115 -66 -27 -65 -28 -65 116 0 124 1 130 20 130 12 0 34 -7
50 -15z"/>
</g>
</svg>
